<?xml version="1.0" standalone="no"?>
<!DOCTYPE svg PUBLIC "-//W3C//DTD SVG 20010904//EN"
 "http://www.w3.org/TR/2001/REC-SVG-20010904/DTD/svg10.dtd">
<svg version="1.0" xmlns="http://www.w3.org/2000/svg"
 width="1500.000000pt" height="1926.000000pt" viewBox="0 0 1500.000000 1926.000000"
 preserveAspectRatio="xMidYMid meet">

<g transform="translate(0.000000,1926.000000) scale(0.100000,-0.100000)"
fill="#000000" stroke="none">
<path d="M3316 15399 c-13 -10 -31 -41 -39 -67 -19 -60 -29 -283 -16 -365 26
-168 114 -492 151 -557 18 -32 20 -46 14 -150 -4 -63 -22 -225 -41 -360 -18
-135 -36 -279 -40 -320 -5 -61 -16 -96 -56 -183 -28 -60 -57 -127 -65 -149 -8
-22 -27 -55 -43 -73 -55 -63 -88 -120 -169 -290 -63 -131 -84 -187 -93 -245
-7 -41 -21 -87 -31 -102 -20 -29 -17 -48 8 -48 8 0 14 -9 14 -20 0 -25 -1 -19
16 -82 19 -74 17 -184 -6 -311 -26 -141 -36 -180 -62 -223 -15 -26 -23 -59
-26 -113 -6 -116 10 -157 169 -432 50 -86 99 -145 161 -192 28 -20 87 -69 131
-108 79 -70 164 -118 253 -142 36 -9 46 -8 70 9 24 15 49 19 142 20 l112 2 56
-77 c70 -96 118 -181 144 -257 30 -84 58 -260 65 -399 7 -134 20 -292 36 -435
6 -52 12 -156 13 -230 9 -434 86 -806 227 -1096 39 -81 63 -115 122 -175 48
-49 93 -108 132 -174 103 -178 118 -198 235 -321 111 -115 271 -319 373 -475
26 -41 76 -114 110 -162 66 -93 79 -131 97 -277 9 -75 105 -527 121 -567 6
-16 21 -76 34 -134 13 -59 31 -124 39 -144 9 -21 16 -66 16 -102 0 -36 9 -110
20 -165 14 -64 20 -128 18 -179 l-3 -79 -40 20 c-21 11 -51 20 -65 20 -14 0
-39 9 -57 19 -19 12 -59 22 -105 26 -144 12 -158 15 -158 35 0 21 -19 30 -63
30 -21 0 -36 7 -44 19 -8 13 -28 20 -70 24 -32 3 -81 9 -110 13 l-52 7 9 -32
c7 -25 6 -33 -6 -38 -20 -7 -74 16 -74 33 0 8 -7 14 -15 14 -8 0 -15 -5 -15
-11 0 -6 -32 -9 -87 -8 -61 1 -114 -4 -173 -19 -73 -17 -87 -18 -101 -6 -27
24 -87 18 -115 -13 -15 -16 -22 -33 -18 -42 13 -32 8 -44 -21 -53 -22 -6 -490
-1 -542 6 -5 1 -9 -20 -11 -45 -2 -32 2 -50 13 -59 10 -8 15 -30 15 -65 0 -47
-3 -55 -27 -70 -16 -10 -38 -29 -49 -44 l-22 -26 -48 18 c-76 27 -96 19 -53
-22 15 -13 19 -26 14 -40 -5 -16 1 -29 22 -49 15 -15 37 -37 47 -50 19 -22 19
-22 -16 -36 -19 -8 -72 -40 -117 -70 -46 -31 -86 -56 -91 -56 -19 0 -33 -35
-31 -76 1 -24 -3 -52 -8 -62 -12 -23 -78 -44 -131 -40 -34 2 -46 -4 -76 -33
-34 -33 -38 -34 -117 -35 -91 -1 -193 -33 -253 -79 -18 -14 -40 -25 -48 -25
-23 0 -20 -37 3 -50 11 -5 35 -10 53 -10 44 0 54 -8 62 -52 7 -41 11 -43 50
-29 20 8 29 5 50 -14 14 -13 26 -31 26 -38 0 -20 -64 -75 -97 -83 -15 -4 -42
-21 -59 -38 -18 -17 -72 -53 -121 -80 -113 -63 -137 -82 -138 -109 0 -15 -11
-27 -37 -39 -21 -10 -38 -23 -38 -28 0 -6 -6 -10 -14 -10 -8 0 -16 -6 -19 -14
-6 -16 11 -36 31 -36 9 0 12 -10 10 -33 -2 -26 -11 -36 -48 -57 -51 -28 -273
-243 -345 -335 -90 -113 -115 -131 -187 -138 -97 -9 -101 -12 -96 -67 l5 -47
-56 -9 -56 -9 -3 -48 c-2 -26 -7 -47 -13 -47 -15 0 -10 -26 9 -43 10 -9 40
-20 66 -23 39 -6 55 -15 87 -48 21 -23 39 -48 39 -57 0 -16 122 -114 178 -143
26 -13 69 -16 250 -16 171 0 222 -3 237 -14 16 -11 17 -17 7 -29 -7 -8 -24
-18 -37 -21 -14 -4 -25 -13 -25 -20 0 -22 29 -46 55 -46 13 0 25 -4 27 -8 2
-7 671 -29 1146 -38 65 -1 118 -7 126 -13 8 -7 68 -14 135 -17 67 -2 154 -12
194 -21 55 -12 124 -16 285 -15 l213 1 20 25 c17 21 25 24 66 20 26 -3 49 -7
52 -9 11 -12 31 20 31 50 0 44 33 54 64 20 36 -39 73 -47 216 -48 181 0 414
13 421 24 3 5 40 15 82 23 76 13 117 35 117 63 0 20 48 16 87 -8 30 -19 43
-21 101 -14 37 4 87 9 112 11 25 1 86 8 137 15 68 9 95 9 105 1 39 -32 359
-44 426 -16 17 7 59 16 91 20 33 3 74 15 90 25 26 16 31 25 31 57 0 52 31 91
131 162 81 58 86 60 146 60 56 0 62 2 70 25 7 22 173 168 181 160 9 -9 -35
-56 -98 -105 -38 -30 -70 -60 -70 -66 0 -6 10 -19 23 -27 21 -15 20 -16 -33
-17 -105 -1 -178 -36 -267 -128 -63 -66 -83 -115 -83 -198 0 -65 12 -139 23
-151 3 -3 18 2 34 10 15 9 35 18 44 20 10 3 19 22 23 48 12 73 64 158 153 247
90 90 96 92 217 76 37 -5 46 -11 46 -26 0 -18 -5 -19 -37 -14 -134 21 -119 24
-173 -32 -34 -36 -66 -86 -103 -164 -80 -167 -80 -166 -10 -232 32 -30 75 -71
95 -90 20 -20 46 -36 56 -36 25 0 140 43 209 77 50 25 54 25 71 10 24 -22 32
-21 32 3 0 55 23 120 56 157 31 33 34 35 28 13 -3 -14 -17 -48 -31 -77 -21
-45 -23 -61 -17 -115 11 -105 14 -108 83 -108 48 0 64 4 79 20 11 12 39 31 63
43 24 12 43 28 41 35 -1 8 2 11 7 8 12 -8 89 78 97 109 11 42 97 75 110 41 11
-29 34 -5 34 35 0 22 7 55 14 74 14 32 18 35 58 35 24 0 75 9 113 19 l70 19
35 -38 c42 -45 108 -69 143 -52 12 6 29 11 37 10 40 -3 50 5 81 73 36 77 97
141 171 178 23 11 43 19 45 18 11 -12 -19 -53 -69 -93 -75 -60 -141 -147 -186
-244 -33 -70 -35 -82 -36 -180 -1 -58 3 -117 8 -132 6 -22 5 -28 -7 -28 -21 0
-30 74 -22 168 6 62 5 75 -6 65 -20 -20 -39 -83 -45 -159 -7 -70 -7 -71 24
-93 22 -15 39 -20 56 -15 32 8 76 48 76 69 0 30 67 160 110 215 l44 54 7 -28
c7 -25 2 -36 -38 -80 -43 -48 -93 -135 -93 -163 0 -7 7 -13 14 -13 13 0 13 -5
2 -33 -35 -85 -23 -143 38 -183 33 -21 51 -21 170 0 54 9 100 15 102 13 3 -3
-12 -15 -33 -27 -36 -21 -37 -23 -18 -36 26 -19 54 -18 100 6 42 22 90 25 145
11 19 -5 47 -12 63 -15 20 -5 27 -12 27 -31 0 -32 15 -32 35 -1 24 36 46 41
66 15 25 -33 66 -28 129 14 30 21 61 37 68 37 14 0 209 168 271 234 19 20 39
36 44 36 5 0 18 10 29 23 74 87 133 137 160 137 45 0 84 26 119 78 37 53 109
143 124 154 5 4 39 8 75 8 64 0 67 1 106 43 23 23 56 67 74 97 18 30 51 73 74
95 54 53 108 161 114 228 4 47 8 55 32 65 56 25 70 105 46 252 l-12 75 -36
-55 c-19 -30 -47 -79 -62 -108 -29 -58 -63 -112 -221 -352 -56 -85 -119 -183
-140 -218 -28 -46 -41 -59 -50 -52 -9 8 -27 -8 -68 -58 -85 -106 -267 -292
-285 -292 -10 0 5 21 40 58 31 31 80 87 110 124 29 36 94 116 144 176 108 130
226 299 279 397 122 228 254 434 325 510 30 33 68 76 83 95 42 55 34 9 -13
-75 -22 -38 -49 -89 -61 -111 l-22 -41 37 -59 c20 -33 36 -67 36 -76 0 -31
-90 -251 -148 -363 -73 -139 -178 -299 -234 -355 -41 -41 -126 -90 -158 -90
-8 0 -39 -14 -68 -30 -57 -33 -132 -124 -152 -185 -11 -34 -10 -36 46 -101 32
-36 77 -76 100 -90 47 -28 15 -27 344 -8 91 5 103 3 126 -15 15 -12 32 -21 38
-21 19 0 149 66 175 89 13 11 34 21 45 21 12 0 32 7 45 16 23 16 25 16 51 -14
22 -26 28 -44 33 -103 6 -77 17 -99 39 -81 7 5 17 10 21 10 20 -1 138 86 133
98 -3 7 0 16 6 20 6 4 8 3 4 -4 -3 -6 -2 -13 4 -17 5 -3 10 -2 10 2 0 5 42 5
93 0 50 -5 106 -9 122 -8 17 1 60 1 96 1 48 -1 69 3 79 14 9 11 31 16 74 16
34 0 66 4 72 9 5 5 50 17 99 26 50 9 99 22 111 30 13 9 36 12 63 8 27 -4 41
-2 41 6 0 6 8 11 18 11 9 0 35 14 56 30 27 20 51 30 75 30 41 0 158 29 216 54
22 9 56 32 75 50 19 19 47 36 63 40 15 4 36 15 47 26 11 11 33 20 49 20 25 0
31 -5 36 -30 4 -17 11 -30 16 -30 5 0 9 -8 9 -17 1 -32 24 18 25 52 0 24 8 34
40 52 22 12 70 52 106 89 62 62 67 71 73 122 7 63 13 74 62 133 20 24 47 66
60 94 14 27 35 68 49 90 14 22 25 47 25 56 0 9 6 19 14 22 8 3 19 23 26 44 7
21 27 54 45 73 38 40 55 71 55 97 0 10 11 40 25 68 20 42 79 226 112 355 l10
35 7 -32 c4 -18 12 -33 17 -33 5 0 9 -18 9 -39 0 -22 5 -43 12 -47 8 -5 9 -2
5 9 -3 9 -2 19 3 22 15 9 12 48 -2 39 -7 -4 -4 3 7 16 11 13 14 20 6 15 -10
-6 -12 -4 -5 6 14 23 17 41 15 97 0 28 3 52 8 52 11 0 26 172 24 285 -4 336
-21 645 -35 645 -4 0 -8 32 -8 70 0 54 -4 72 -15 76 -8 4 -15 16 -15 28 0 12
-6 31 -14 42 -8 10 -11 23 -6 29 15 18 -62 413 -91 467 -5 10 -21 18 -34 18
-25 0 -35 23 -15 35 12 8 13 48 1 61 -15 16 -71 201 -116 388 -24 98 -47 181
-53 185 -5 3 -13 26 -17 51 -12 75 -54 197 -125 365 -37 88 -79 203 -94 255
-15 52 -36 110 -47 129 -21 36 -59 137 -59 158 0 29 43 9 106 -49 42 -40 97
-109 149 -188 45 -69 98 -144 117 -167 31 -37 37 -40 50 -27 13 13 13 21 -3
69 -22 67 -260 544 -302 604 -17 25 -44 72 -60 105 -16 34 -54 98 -83 144
-113 174 -169 297 -193 427 -10 53 -160 347 -233 457 -32 47 -61 101 -64 120
-4 18 -15 42 -24 53 -10 11 -25 36 -35 55 -9 19 -27 46 -40 60 -12 14 -32 52
-45 84 -26 64 -103 196 -218 369 -40 60 -72 112 -72 116 0 4 11 13 25 19 21
10 26 9 35 -8 13 -23 33 -26 49 -6 9 11 9 22 -3 50 -18 44 -232 217 -367 296
-50 30 -107 73 -126 95 -41 48 -108 95 -136 95 -26 0 -92 39 -192 113 -44 33
-114 76 -157 97 -42 21 -91 49 -110 63 -46 34 -272 174 -313 194 -19 9 -31 21
-28 26 3 6 1 7 -5 3 -20 -12 -139 56 -164 94 -17 25 -30 34 -46 32 -16 -2 -25
4 -31 21 -12 31 -48 57 -79 57 -13 0 -40 8 -62 19 -21 10 -69 26 -107 36 -37
9 -108 28 -158 41 -49 13 -160 35 -245 49 -192 31 -200 33 -200 45 0 6 12 15
26 20 14 6 30 23 36 38 10 25 15 27 64 28 30 1 54 -2 54 -5 0 -4 55 -14 122
-21 210 -24 246 -18 179 27 -36 25 -186 76 -216 75 -10 -1 -24 3 -30 7 -18 15
-109 41 -193 56 -45 8 -177 19 -294 25 -257 14 -320 21 -325 37 -3 7 18 25 46
40 28 15 51 31 51 34 0 3 -16 11 -36 17 -47 14 -107 -4 -239 -71 -89 -46 -107
-52 -163 -52 -52 0 -67 4 -80 20 -10 12 -37 26 -62 32 -154 38 -182 57 -300
198 -88 105 -151 168 -217 214 -22 15 -33 30 -33 47 0 44 -27 88 -90 149 -34
33 -90 94 -123 135 -33 41 -92 109 -131 151 -90 97 -109 123 -153 208 -24 46
-46 74 -62 81 -33 13 -207 180 -305 292 -92 105 -98 132 -35 145 25 5 47 17
56 29 12 19 10 26 -20 70 -18 26 -62 70 -98 96 -35 26 -80 62 -100 80 -20 18
-60 41 -88 52 -28 10 -56 27 -62 37 -7 14 -21 19 -54 19 -34 0 -47 5 -60 22
-8 13 -39 37 -67 53 -44 26 -54 37 -60 70 -5 22 -18 49 -29 61 -12 13 -19 27
-15 32 7 12 -12 82 -23 82 -5 0 -11 22 -15 48 -3 26 -14 58 -23 71 -9 13 -29
51 -46 85 -64 131 -85 211 -97 356 -12 152 -19 210 -30 240 -5 14 -18 59 -30
101 -27 103 -58 177 -146 355 -73 149 -84 163 -141 179 -28 8 -29 11 48 -155
31 -69 78 -185 103 -257 39 -114 44 -139 38 -180 -4 -27 -6 -77 -5 -113 1 -36
3 -114 5 -175 4 -141 -2 -163 -45 -167 -45 -4 -63 8 -170 110 -51 49 -57 53
-90 47 -29 -6 -37 -14 -52 -48 l-17 -42 -19 43 c-17 40 -39 49 -39 16 0 -8 -5
-14 -11 -14 -5 0 -8 -4 -5 -8 8 -14 11 -181 3 -189 -12 -11 -60 -15 -53 -5 3
6 -2 9 -11 8 -9 0 -24 11 -32 26 -15 25 -14 28 6 47 11 11 23 18 25 15 3 -2 5
10 4 28 -1 24 -7 36 -26 45 -17 8 -26 9 -31 1 -4 -6 -12 -7 -18 -4 -6 4 -10 2
-9 -5 2 -6 -2 -13 -8 -16 -11 -4 -39 45 -35 60 1 5 -3 6 -8 3 -18 -11 -22 13
-6 37 l15 23 -85 -3 c-50 -1 -85 2 -85 7 0 6 -5 9 -12 8 -11 -3 -14 11 -9 41
0 4 24 22 51 39 28 17 50 36 50 42 0 6 4 9 9 6 5 -4 4 5 -2 18 -11 23 -16 25
-87 23 -41 -1 -81 2 -87 6 -7 5 -13 26 -13 47 0 21 -5 51 -10 66 l-11 27 -24
-23 c-20 -19 -27 -21 -40 -10 -12 10 -18 8 -35 -11 -11 -13 -22 -32 -25 -41
-3 -9 -27 -25 -52 -34 -45 -17 -49 -17 -159 5 -67 14 -130 21 -153 18 -28 -3
-44 -1 -52 9 -9 12 -33 14 -111 10 -54 -2 -101 0 -104 5 -3 5 -31 9 -63 9 -46
0 -62 4 -77 21 -24 27 -67 49 -94 49 -14 0 -25 10 -35 33 -7 18 -42 62 -77 97
-83 85 -311 296 -366 339 -24 18 -61 59 -82 91 -22 32 -61 75 -87 96 -27 21
-97 86 -158 144 -115 111 -155 140 -223 164 -38 14 -43 13 -66 -5z m314 -594
c25 -13 38 -13 76 -4 50 13 70 4 60 -27 -5 -17 -18 -19 -126 -19 l-120 0 0 27
c0 14 6 29 13 31 25 10 69 7 97 -8z m-72 -287 c18 -18 14 -60 -7 -88 -17 -21
-22 -23 -45 -12 -34 15 -34 54 -1 87 27 28 36 30 53 13z m1658 -402 c19 -14
19 -15 -2 -43 -15 -19 -30 -28 -50 -28 -33 0 -40 17 -25 58 12 31 45 36 77 13z
m-506 -146 c9 -17 7 -20 -15 -26 -14 -3 -32 -19 -41 -36 -18 -35 -54 -53 -89
-44 -22 6 -26 11 -23 39 4 41 44 64 89 48 27 -9 29 -8 29 15 0 30 34 33 50 4z
m479 -219 c25 -16 4 -41 -35 -41 -29 0 -35 3 -30 16 3 9 6 20 6 25 0 11 41 12
59 0z m-476 -40 c11 -11 -10 -81 -25 -81 -21 0 -68 35 -68 51 0 40 12 51 48
45 19 -3 40 -10 45 -15z m-689 -83 c18 -26 21 -80 6 -109 -13 -23 -50 -25 -90
-4 -35 18 -37 34 -10 93 16 36 23 42 49 42 20 0 35 -8 45 -22z m1676 -238 c51
-51 -6 -90 -62 -42 -24 21 -22 41 5 52 32 13 35 12 57 -10z m-995 -100 c9 -28
-2 -40 -36 -40 -21 0 -29 5 -29 18 0 40 53 58 65 22z m1995 -170 c13 -25 13
-32 -4 -55 -14 -19 -15 -19 -35 -1 -20 18 -29 74 -15 89 10 9 42 -10 54 -33z
m-324 -115 c22 -34 6 -75 -30 -75 -25 0 -36 21 -36 73 0 22 4 27 25 27 15 0
31 -10 41 -25z m-3088 -110 c4 -85 -27 -218 -56 -242 -19 -16 -112 -27 -124
-15 -12 12 5 99 31 157 10 22 26 61 35 87 25 68 53 100 85 96 25 -3 26 -5 29
-83z m3005 24 c5 -9 7 -28 3 -43 -10 -41 -48 -32 -57 14 -4 19 -5 38 -2 43 8
13 45 4 56 -14z m-2067 -74 c18 -28 12 -45 -19 -45 -39 0 -50 13 -36 43 15 34
34 34 55 2z m2140 -10 c29 -44 -18 -75 -58 -38 -21 19 -23 34 -6 51 19 19 46
14 64 -13z m-2142 -71 c34 -33 6 -75 -32 -48 -33 23 -27 59 10 63 4 1 14 -6
22 -15z m199 -8 c18 -14 84 -48 147 -76 63 -28 126 -62 140 -76 l24 -24 -29
-31 c-38 -39 -217 -159 -298 -198 l-62 -31 -104 30 c-57 17 -116 30 -132 30
-15 0 -31 5 -34 10 -3 6 -14 10 -23 10 -17 0 -72 60 -72 79 0 7 28 11 73 11
l72 0 22 38 c36 64 112 150 176 202 34 27 63 49 65 50 2 0 18 -11 35 -24z
m2726 -160 c17 -19 22 -32 17 -51 -16 -65 -87 -87 -125 -39 -24 30 -26 52 -9
89 16 36 84 36 117 1z m172 -36 c34 -19 18 -70 -23 -70 -20 0 -38 28 -38 59 0
23 28 28 61 11z m-1086 -235 c0 -14 -8 -21 -27 -23 -22 -3 -28 1 -28 16 0 25
10 33 35 30 12 -2 20 -10 20 -23z m1048 -106 c41 -57 -16 -112 -80 -78 -30 16
-29 34 3 76 30 39 48 39 77 2z m-3487 -4 c11 -27 -5 -65 -26 -65 -28 0 -56 45
-40 65 16 19 59 19 66 0z m2322 -136 c2 -14 -4 -31 -12 -39 -13 -10 -20 -9
-41 4 -14 9 -24 20 -22 24 2 4 7 15 10 25 5 13 15 17 34 15 22 -2 29 -9 31
-29z m573 -69 c10 -6 19 -19 19 -29 0 -45 -72 -56 -78 -13 -7 48 16 64 59 42z
m-1486 -121 c0 -19 -6 -25 -27 -27 -22 -3 -28 1 -28 17 0 20 27 43 45 37 6 -1
10 -14 10 -27z m-117 -91 c5 -45 -49 -64 -65 -22 -4 11 2 24 17 36 29 23 44
19 48 -14z m1051 7 c3 -4 -7 -18 -23 -32 -31 -27 -41 -23 -52 21 -7 29 -7 29
31 23 21 -3 40 -9 44 -12z m-94 -100 c0 -25 -4 -30 -28 -33 -32 -4 -44 16 -27
48 18 33 55 23 55 -15z m-841 19 c9 -3 31 -28 51 -55 l35 -49 28 20 c15 11 56
24 95 29 l67 10 54 -55 c53 -52 78 -65 91 -44 3 6 13 10 21 10 10 0 14 -12 14
-40 0 -47 16 -52 51 -16 l24 25 35 -26 c46 -34 60 -52 60 -79 0 -17 8 -23 34
-28 36 -7 71 -37 59 -51 -5 -4 -3 -5 4 -2 14 8 46 -21 38 -34 -4 -5 -2 -9 4
-9 5 0 7 -12 5 -27 -8 -44 3 -73 29 -73 13 0 28 5 33 10 16 16 40 2 70 -41 17
-26 34 -39 49 -39 36 0 48 -25 52 -108 4 -103 11 -117 32 -68 12 28 15 52 11
82 -11 73 1 364 15 364 26 0 43 -37 49 -110 13 -151 14 -154 57 -180 46 -29
54 -44 33 -65 -13 -13 -12 -20 12 -62 52 -92 72 -113 107 -113 18 0 38 -4 45
-8 19 -12 4 -39 -24 -46 -14 -4 -24 -11 -22 -15 27 -71 69 -131 111 -159 l47
-32 -6 -86 c-7 -80 -6 -86 15 -100 32 -23 25 -60 -11 -56 -22 3 -28 -2 -37
-31 -12 -35 -10 -47 26 -127 8 -20 29 -45 46 -55 17 -11 41 -27 54 -35 13 -8
23 -21 23 -28 0 -7 9 -30 20 -52 24 -47 24 -50 4 -50 -14 0 -16 -7 -11 -37 3
-21 9 -47 12 -59 4 -12 -1 -29 -13 -44 l-19 -23 -31 21 c-31 23 -52 28 -52 14
0 -20 -27 -43 -42 -37 -20 8 -98 148 -98 175 0 14 -9 20 -37 22 -35 3 -38 6
-41 38 -3 28 2 39 24 57 l28 22 -26 6 c-14 4 -40 5 -59 3 -32 -3 -34 -6 -40
-45 -3 -23 -13 -51 -22 -61 -9 -10 -17 -25 -17 -33 0 -8 -19 -23 -42 -34 -38
-18 -44 -25 -51 -62 -10 -54 -33 -56 -89 -8 l-41 34 -19 -35 c-14 -27 -16 -39
-8 -49 7 -8 9 -23 5 -34 -12 -37 62 -52 128 -26 13 6 17 2 17 -18 0 -13 -7
-30 -15 -37 -20 -17 -20 -22 18 -126 l34 -91 -20 -24 -20 -24 47 -9 c50 -10
55 -19 30 -55 -11 -15 -13 -26 -6 -33 14 -14 -4 -79 -27 -99 -12 -9 -18 -28
-18 -50 1 -21 -4 -33 -11 -31 -7 1 -12 -3 -12 -9 0 -5 -4 -8 -9 -5 -5 4 -7 -3
-4 -14 3 -11 10 -20 15 -20 5 0 6 5 3 10 -11 18 1 11 21 -12 13 -16 14 -19 2
-10 -9 8 -19 9 -22 4 -6 -10 22 -27 37 -23 5 1 6 -3 3 -8 -4 -5 2 -14 11 -20
10 -6 12 -11 6 -11 -7 0 -13 -5 -13 -11 0 -5 5 -7 10 -4 16 10 23 -21 10 -44
-7 -14 -7 -21 0 -21 11 0 8 -36 -5 -47 -4 -5 -5 -3 -2 3 4 7 -1 18 -10 25 -15
13 -16 11 -10 -16 l6 -30 -13 30 c-8 17 -12 33 -9 37 8 15 12 49 4 44 -8 -5
-10 3 -13 49 -1 14 -6 25 -10 25 -11 0 -1 -71 11 -83 7 -7 5 -20 -4 -37 -13
-24 -13 -30 0 -40 18 -15 10 -31 -10 -23 -11 4 -13 1 -8 -13 4 -12 3 -15 -5
-10 -7 4 -12 1 -12 -8 0 -8 -11 -28 -24 -43 -24 -27 -26 -27 -52 -13 -37 20
-52 65 -30 89 9 10 16 26 16 36 0 34 -40 83 -87 106 -27 13 -53 35 -65 55 -12
21 -28 34 -40 34 -11 0 -22 8 -25 20 -6 23 -42 27 -62 8 -19 -20 -51 25 -51
73 0 21 -9 61 -20 89 -11 28 -20 69 -20 91 0 32 -7 47 -30 71 -28 28 -30 32
-15 48 8 9 15 21 15 26 0 12 -84 94 -127 123 -18 12 -33 26 -33 31 0 5 16 24
35 41 30 28 35 38 35 78 0 27 8 59 19 77 18 30 18 33 1 84 -15 44 -25 57 -57
73 -21 11 -48 28 -60 39 -15 14 -30 19 -49 15 -44 -8 -84 11 -84 40 0 13 5 33
10 44 9 15 7 19 -7 19 -10 -1 -29 -7 -43 -15 -35 -20 -37 -19 -50 20 l-12 36
-35 -21 -35 -20 7 29 c5 25 3 30 -17 33 -20 3 -23 8 -20 45 2 39 1 42 -30 48
-18 4 -39 12 -47 19 -31 24 -71 91 -71 117 0 33 -53 99 -80 99 -10 0 -23 -7
-30 -16 -12 -13 -18 -7 -44 43 -22 41 -38 59 -53 61 -19 3 -23 -1 -23 -22 0
-18 -9 -30 -30 -41 -46 -24 -58 -19 -71 27 -10 40 -10 43 16 64 28 22 27 43
-3 45 -11 0 -12 3 -4 6 7 3 12 24 12 53 0 38 4 49 18 53 13 3 10 6 -10 11 -25
7 -26 10 -13 29 12 19 11 29 -6 77 -10 30 -18 59 -16 65 2 5 -4 39 -12 75 -18
71 -17 110 3 110 7 0 21 9 31 20 13 14 31 20 60 20 23 0 56 5 74 11 29 10 32
15 29 48 -3 40 -21 53 -57 39 -39 -14 -39 2 0 35 20 18 41 48 48 67 6 19 23
52 36 73 21 30 31 37 58 37 46 0 102 17 129 40 26 22 30 23 52 14z m964 -53
c5 -36 -13 -47 -42 -27 -18 11 -26 25 -26 46 0 30 0 30 33 17 21 -9 33 -21 35
-36z m122 -83 c0 -30 -23 -68 -41 -68 -5 0 -16 14 -25 32 -16 31 -16 32 6 50
36 29 60 24 60 -14z m-163 -133 c3 -9 -1 -32 -9 -53 -12 -31 -19 -37 -43 -37
-23 0 -33 7 -43 28 -12 24 -11 31 2 53 19 29 83 35 93 9z m787 -148 c8 -14 8
-20 -4 -27 -8 -5 -20 -10 -27 -10 -16 0 -36 37 -28 51 10 15 46 7 59 -14z
m2554 -456 c19 -11 11 -45 -11 -49 -19 -4 -32 20 -23 43 6 17 15 19 34 6z
m-5157 -139 c28 -24 20 -52 -16 -52 -17 0 -28 7 -34 23 -17 46 9 61 50 29z
m4170 8 c10 -6 19 -20 19 -32 0 -16 -4 -19 -22 -14 -13 3 -26 6 -30 6 -12 0
-9 50 3 50 6 0 19 -5 30 -10z m-4051 -51 c0 -17 -19 -29 -46 -29 -19 0 -18 30
3 59 15 23 17 23 30 6 7 -11 13 -26 13 -36z m4277 -44 c19 -13 20 -19 10 -45
-16 -41 -43 -39 -57 5 -17 53 3 71 47 40z m-4453 -11 c9 -23 7 -44 -3 -44 -18
0 -54 37 -47 48 10 17 43 15 50 -4z m3666 -19 c36 -18 37 -26 9 -51 -21 -19
-21 -18 -39 4 -10 12 -16 31 -13 42 6 24 6 24 43 5z m674 -67 c8 -38 -7 -57
-32 -42 -32 21 -28 74 6 74 14 0 21 -9 26 -32z m410 -40 c7 -37 -4 -53 -31
-44 -18 6 -43 44 -43 66 0 6 15 10 34 10 30 0 34 -4 40 -32z m-4772 -33 c8
-18 8 -32 -2 -55 -13 -32 -21 -35 -50 -20 -34 18 -44 48 -25 76 21 32 62 32
77 -1z m6203 -22 l27 -28 -28 -12 c-16 -7 -34 -12 -41 -13 -10 0 -33 49 -33
71 0 20 49 7 75 -18z m-1739 -23 c18 0 18 -24 -1 -60 -18 -34 -40 -39 -55 -11
-21 39 -3 88 28 76 8 -3 20 -5 28 -5z m-471 -24 c17 -12 17 -17 5 -45 -15 -38
-34 -37 -63 1 -17 22 -18 30 -7 43 15 19 40 19 65 1z m2409 -2 c9 -8 16 -19
16 -23 0 -8 -37 -43 -57 -55 -19 -10 -43 23 -43 60 0 32 2 34 34 34 19 0 42
-7 50 -16z m-3806 -121 c-3 -46 -4 -48 -36 -51 -29 -3 -34 0 -48 34 -15 35
-15 39 2 51 10 7 33 13 51 13 l34 0 -3 -47z m3680 5 c17 -17 15 -67 -3 -74
-22 -9 -45 14 -45 46 0 40 23 53 48 28z m-5805 -9 c13 -6 31 -24 41 -39 16
-28 16 -29 -15 -64 -35 -40 -76 -48 -104 -19 -13 13 -16 27 -11 61 9 70 34 86
89 61z m3055 -126 c-3 -19 -47 -45 -60 -37 -4 3 -8 16 -8 30 0 21 5 24 36 24
28 0 35 -4 32 -17z m3222 3 c28 -35 -11 -93 -47 -70 -36 22 -23 84 17 84 10 0
23 -7 30 -14z m-4045 -41 c0 -24 -5 -31 -24 -33 -36 -5 -55 23 -33 48 26 29
57 21 57 -15z m903 -47 c17 -17 14 -39 -8 -67 -18 -21 -23 -22 -50 -11 -33 14
-38 34 -14 68 17 24 53 29 72 10z m-3212 -49 c39 -24 42 -41 14 -69 -24 -24
-72 -26 -90 -5 -11 13 -10 23 0 55 15 46 28 49 76 19z m688 -65 c11 -29 6 -53
-12 -63 -22 -11 -35 -4 -52 28 -11 21 -10 26 6 38 24 18 51 16 58 -3z m2512
-19 c7 -39 -7 -65 -37 -65 -18 0 -39 27 -39 49 0 16 38 51 55 51 8 0 17 -14
21 -35z m-2342 -1 c35 -35 3 -66 -35 -35 -14 11 -20 24 -16 34 8 21 31 22 51
1z m1360 -96 c22 -31 20 -64 -6 -82 -44 -31 -95 31 -64 79 20 31 50 32 70 3z
m3077 2 c10 -6 19 -20 19 -32 0 -18 -4 -20 -32 -14 -39 8 -41 10 -33 35 7 23
17 26 46 11z m1858 -8 c6 -11 5 -28 -4 -49 -17 -41 -41 -53 -77 -41 -22 8 -28
16 -28 40 0 50 16 68 60 68 27 0 42 -5 49 -18z m-3651 -14 c18 -18 15 -36 -13
-64 -33 -33 -55 -18 -55 37 0 36 2 39 28 39 15 0 33 -5 40 -12z m810 -42 c-4
-26 -37 -28 -52 -3 -9 15 -7 21 8 32 24 18 48 2 44 -29z m288 19 c-3 -14 0
-25 5 -25 9 0 13 13 10 40 -2 13 0 13 8 1 12 -18 4 -39 -20 -52 -11 -5 -19
-14 -19 -20 0 -6 4 -8 9 -5 5 4 8 -2 6 -11 -1 -10 2 -24 8 -31 8 -10 7 -12 -3
-10 -8 2 -14 -2 -15 -9 0 -6 -4 -15 -9 -20 -5 -5 -6 -3 -2 5 4 7 2 12 -6 12
-8 1 -7 4 4 10 16 10 19 49 2 40 -5 -3 -8 -12 -6 -20 2 -13 1 -13 -7 -1 -6 10
-4 22 7 40 10 14 18 33 18 43 2 32 4 38 9 38 3 0 3 -11 1 -25z m414 -31 c0
-114 55 -186 151 -197 29 -4 55 -11 57 -17 2 -6 8 -8 12 -5 5 3 11 1 14 -3 7
-11 -34 -9 -53 2 -10 6 -12 5 -7 -2 4 -7 2 -12 -3 -12 -6 0 -11 6 -11 13 0 8
-4 7 -10 -3 -9 -13 -10 -13 -10 0 0 9 -3 11 -8 5 -4 -5 -18 -12 -32 -13 -14
-2 -27 -5 -28 -7 -11 -11 -21 -87 -16 -123 6 -39 9 -43 28 -37 58 18 66 18 66
-3 0 -15 -11 -24 -42 -34 -31 -11 -44 -21 -46 -36 -5 -31 -20 -27 -40 8 -11
19 -30 34 -51 40 -32 9 -111 74 -111 92 0 16 26 6 60 -22 37 -33 87 -42 76
-14 -3 9 -6 24 -6 35 0 36 -52 80 -110 93 -43 10 -55 17 -55 31 0 16 11 21 58
30 32 5 62 17 67 25 5 8 10 51 10 96 0 74 9 104 32 104 4 0 8 -21 8 -46z
m1310 22 c27 -29 21 -52 -16 -66 -36 -14 -44 -6 -44 46 0 36 3 44 18 44 10 0
29 -11 42 -24z m-2793 -66 c-8 -11 -17 -17 -22 -12 -5 4 -5 1 -1 -6 10 -16
-20 -46 -39 -38 -23 9 -18 25 23 65 28 29 39 35 45 24 5 -7 2 -21 -6 -33z
m3243 -80 c5 -10 10 -21 10 -24 0 -8 -31 -36 -40 -36 -16 0 -40 32 -40 54 0
48 45 53 70 6z m-312 8 c17 -17 15 -68 -2 -68 -18 0 -46 38 -46 62 0 21 30 24
48 6z m-65 -128 c13 -12 -11 -50 -31 -50 -26 0 -42 20 -42 51 0 27 1 28 33 17
17 -6 36 -14 40 -18z m-3247 -34 c7 -19 -13 -56 -30 -56 -15 0 -39 47 -31 61
9 14 55 11 61 -5z m-2072 -82 c22 -21 20 -51 -4 -64 -33 -18 -80 20 -80 64 0
22 63 21 84 0z m5584 -32 c3 -33 0 -42 -13 -42 -49 0 -76 57 -37 79 32 19 47
8 50 -37z m-4468 -17 c8 -10 8 -15 -1 -21 -7 -4 -9 -3 -5 4 3 6 2 13 -4 17 -5
3 -11 -2 -11 -12 -1 -16 -2 -16 -6 1 -4 15 -7 16 -14 5 -6 -10 -9 -10 -9 -1 0
6 -5 12 -11 12 -5 0 -7 -5 -3 -12 4 -7 3 -8 -5 -4 -6 4 -9 11 -7 15 9 13 64
10 76 -4z m3960 -47 c0 -15 -8 -33 -17 -40 -16 -11 -18 -32 -18 -160 0 -132 2
-148 17 -148 10 0 22 14 29 35 19 50 29 43 29 -19 0 -64 7 -86 26 -86 9 0 14
-11 14 -29 0 -35 19 -91 31 -91 12 0 11 -47 -1 -71 -6 -10 -19 -19 -29 -19
-15 0 -21 10 -26 42 -5 28 -4 43 4 46 18 6 13 18 -14 30 -24 11 -26 10 -37
-33 -13 -48 -15 -50 -37 -36 -9 6 -10 11 -2 15 6 4 11 24 11 44 0 30 -6 42
-34 65 -40 31 -46 33 -46 11 0 -9 -3 -14 -7 -12 -5 3 -23 10 -41 17 -19 8 -31
19 -28 26 6 17 -13 34 -33 28 -14 -4 -13 -2 2 10 25 21 21 27 -18 27 -31 0
-35 3 -40 34 -4 19 -4 44 0 56 6 19 5 20 -13 9 -14 -9 -27 -9 -49 -1 -29 9
-33 7 -69 -30 -41 -41 -107 -82 -118 -71 -3 4 -6 1 -6 -5 0 -7 -7 -12 -15 -12
-24 0 -65 23 -65 36 0 28 25 65 56 84 22 14 34 31 38 53 3 18 29 63 56 99 l50
67 73 -6 c93 -7 118 -19 142 -69 l20 -41 25 30 c13 17 39 39 57 50 27 16 33
25 33 54 0 23 7 41 17 49 22 15 33 2 33 -38z m-2626 21 c-1 -9 5 -16 12 -16 7
0 33 -7 57 -17 36 -14 44 -21 40 -37 -6 -21 -36 -42 -47 -32 -3 3 -6 1 -6 -5
0 -6 -7 -9 -17 -5 -14 6 -14 2 3 -26 16 -27 17 -33 4 -41 -8 -5 -18 -6 -22 -4
-4 3 -8 0 -8 -5 0 -6 -7 -11 -15 -11 -8 0 -15 7 -15 15 0 19 -10 19 -37 0 -20
-14 -21 -13 -16 5 3 11 10 17 17 13 8 -5 8 -3 -1 8 -9 11 -6 21 17 46 16 17
32 28 36 25 5 -4 2 1 -5 11 -14 17 -27 24 -17 9 8 -13 -24 -53 -36 -46 -6 4
-8 2 -5 -3 4 -6 0 -16 -8 -23 -8 -7 -15 -9 -15 -4 0 5 -4 3 -9 -5 -13 -20 -37
-7 -56 28 -17 34 -23 26 60 76 14 9 25 24 25 34 0 19 21 31 50 27 8 -1 15 -9
14 -17z m834 -40 c3 -38 -28 -88 -69 -110 -18 -9 -18 -9 -2 25 14 31 15 39 3
61 -12 22 -11 27 5 45 29 33 59 22 63 -21z m-2198 22 c0 -14 -29 -21 -36 -9
-4 6 -3 8 4 4 6 -3 13 -2 17 4 8 12 15 13 15 1z m40 0 c0 -5 3 -18 6 -28 3
-12 1 -10 -8 5 -8 12 -18 19 -23 15 -4 -4 -5 -2 -1 5 8 14 26 16 26 3z m2325
-11 c3 -5 23 -10 44 -10 21 0 52 -5 69 -11 27 -9 36 -8 61 10 40 29 44 27 26
-15 -19 -45 -19 -43 4 -37 30 8 54 -25 48 -67 -2 -20 1 -47 8 -60 11 -21 11
-26 -3 -36 -13 -10 -14 -15 -3 -27 10 -13 9 -20 -5 -42 l-17 -26 -23 28 c-42
51 -58 94 -44 116 19 31 -1 43 -48 29 -22 -7 -50 -12 -62 -12 -21 0 -22 3 -16
50 4 30 3 50 -3 50 -13 0 -71 50 -71 61 0 12 27 12 35 -1z m-2343 -35 c-2 -11
-4 -29 -5 -40 -1 -11 -9 -20 -17 -20 -10 0 -14 -9 -13 -25 2 -17 0 -20 -5 -10
-4 9 -16 15 -27 15 -14 0 -20 7 -21 25 -2 31 17 62 34 55 7 -2 15 2 19 11 8
22 39 12 35 -11z m-482 9 c0 -8 -19 -13 -24 -6 -3 5 1 9 9 9 8 0 15 -2 15 -3z
m515 -57 c-1 -11 -8 -25 -16 -31 -23 -17 -30 -44 -13 -50 9 -3 12 -1 9 4 -4 6
2 18 11 28 17 16 18 16 11 0 -4 -11 -2 -18 5 -18 7 0 3 -7 -8 -15 -17 -13 -17
-14 -1 -15 9 0 17 -5 17 -11 0 -6 7 -8 18 -4 13 5 14 3 6 -5 -9 -9 -18 -9 -35
1 -13 7 -27 13 -30 14 -12 0 -40 35 -29 35 7 0 10 8 7 20 -3 11 -1 18 4 14 5
-3 9 0 9 6 0 6 4 9 9 5 5 -3 12 -1 16 5 3 5 2 10 -3 10 -5 0 -9 6 -9 13 0 8 6
14 12 14 6 0 11 -9 10 -20z m5455 -27 c0 -26 -4 -30 -28 -30 -32 0 -52 16 -52
42 0 14 8 18 40 18 38 0 40 -2 40 -30z m-422 -17 c13 -25 4 -43 -19 -43 -25 0
-35 25 -19 45 16 20 27 19 38 -2z m-3060 -28 c17 -37 15 -53 -7 -65 -31 -16
-69 -12 -81 9 -14 28 -13 38 10 61 28 28 64 26 78 -5z m-1893 -15 c3 -6 -1 -7
-9 -4 -18 7 -21 14 -7 14 6 0 13 -4 16 -10z m348 -15 c-2 -11 -3 -50 -4 -87 0
-60 -3 -68 -19 -68 -11 0 -27 11 -36 25 l-17 26 -11 -23 c-10 -19 -19 -22 -46
-20 -19 2 -46 11 -59 19 -25 16 -25 16 -4 24 12 4 30 23 39 41 22 43 24 45 33
30 6 -9 16 -3 35 23 23 30 33 36 59 33 25 -2 31 -7 30 -23z m2639 -52 c10 -23
30 -56 45 -73 25 -30 25 -32 8 -48 -13 -13 -19 -14 -22 -4 -3 6 -10 12 -18 12
-37 0 -53 -92 -20 -116 24 -18 35 -18 35 -1 0 7 6 21 13 30 10 14 18 15 52 6
22 -6 48 -20 58 -31 18 -21 24 -84 7 -73 -5 3 -7 0 -4 -9 5 -14 119 -46 164
-46 34 0 60 19 60 43 0 43 14 52 60 38 49 -15 57 -30 41 -83 -7 -22 -10 -42
-8 -45 3 -2 22 3 43 12 l39 16 28 -32 c17 -21 27 -45 27 -65 0 -36 24 -52 48
-32 12 10 21 5 56 -34 35 -40 44 -46 59 -37 14 8 22 8 30 -1 9 -8 -2 -38 -46
-123 l-58 -112 31 -26 c33 -28 39 -53 14 -63 -25 -9 -31 -8 -63 20 -35 29 -44
26 -70 -25 -11 -20 -27 -43 -35 -50 -12 -10 -16 -32 -16 -82 0 -56 -4 -73 -20
-89 -13 -13 -20 -33 -20 -60 0 -22 -11 -67 -24 -100 -28 -69 -19 -80 41 -49
l38 20 3 -43 c4 -59 15 -66 53 -34 21 18 41 26 58 24 22 -3 26 -7 23 -33 -2
-16 -10 -40 -18 -52 -18 -28 -18 -53 -1 -53 22 0 97 59 109 85 14 32 22 31 46
-2 l20 -27 36 19 c38 21 39 23 10 93 -10 24 -11 39 -4 52 6 11 9 25 8 31 -2 8
10 14 30 16 18 1 56 18 84 37 50 34 52 34 82 19 17 -8 33 -17 35 -19 2 -2 -11
-15 -28 -30 -28 -24 -31 -31 -29 -73 l3 -46 -45 -3 c-68 -5 -78 -20 -77 -112
0 -67 3 -79 19 -83 31 -8 53 3 66 33 20 45 50 49 84 11 33 -37 35 -48 8 -56
-20 -6 -51 -45 -64 -79 -6 -17 -2 -18 40 -11 34 5 49 3 55 -7 15 -23 9 -62
-16 -103 -14 -22 -25 -43 -25 -47 0 -6 154 -98 165 -98 4 0 5 10 3 23 -2 18 2
23 30 25 48 5 39 22 -13 22 -43 0 -45 1 -45 30 0 20 8 35 24 45 22 15 27 15
55 0 32 -16 35 -14 25 22 -3 12 -12 19 -18 17 -23 -9 -39 24 -33 67 3 22 8 43
10 46 10 9 27 -8 27 -28 0 -36 17 -19 54 51 21 39 39 70 42 70 2 0 21 -7 42
-16 36 -16 36 -17 12 -23 -22 -6 -25 -15 -37 -96 -7 -50 -12 -93 -10 -97 1 -4
16 10 33 30 28 33 32 48 39 119 l7 81 -29 5 c-15 3 -45 8 -66 12 -69 11 -90
85 -22 77 39 -5 46 10 19 39 -15 17 -15 19 0 34 18 19 20 46 6 95 -8 27 -7 38
5 49 33 34 72 -49 61 -133 -6 -40 -5 -48 5 -39 9 9 22 3 57 -28 54 -47 114
-69 143 -51 10 7 46 12 80 12 l62 0 -6 -29 c-8 -40 2 -69 26 -73 32 -5 31 -25
-2 -59 -26 -25 -34 -29 -46 -19 -8 7 -15 20 -15 29 0 18 -18 41 -32 41 -4 0
-8 -12 -8 -27 0 -16 -5 -35 -10 -43 -7 -11 -2 -21 18 -37 27 -22 27 -22 4 -23
-16 0 -27 -9 -36 -31 -11 -26 -14 -28 -26 -14 -9 10 -11 31 -7 66 6 47 5 50
-14 44 -14 -5 -25 -1 -33 10 -7 10 -18 16 -24 14 -8 -3 -3 -17 13 -42 14 -20
23 -41 20 -46 -3 -5 -23 -12 -45 -16 -70 -12 -56 -33 18 -26 25 2 29 -11 7
-29 -23 -19 -18 -38 16 -55 28 -15 29 -18 15 -33 -22 -26 -5 -45 42 -46 35 -1
46 -7 82 -49 39 -44 44 -47 60 -32 22 20 49 19 57 -1 3 -9 -1 -40 -11 -68 -18
-59 -21 -112 -6 -121 5 -3 14 -15 20 -25 8 -15 4 -26 -21 -55 -25 -28 -30 -41
-26 -64 5 -23 1 -32 -18 -45 -13 -9 -25 -28 -27 -43 -3 -28 -8 -30 -42 -17
-17 7 -18 4 -12 -40 5 -33 4 -52 -5 -63 -11 -12 -10 -16 2 -24 9 -4 25 -16 37
-26 l22 -18 -20 -42 -19 -43 -60 0 c-56 0 -61 -2 -67 -25 -3 -14 -4 -36 -2
-49 4 -20 0 -25 -25 -30 -16 -3 -41 -6 -54 -6 -23 0 -24 -2 -18 -42 15 -96 38
-179 53 -198 17 -20 19 -18 118 92 99 110 244 284 244 292 0 3 47 53 104 112
57 59 110 119 117 133 7 14 30 44 51 66 20 22 50 71 65 110 25 62 31 70 58 73
53 6 73 -53 34 -102 -14 -17 -27 -25 -38 -21 -22 7 -78 -53 -205 -216 -50 -63
-100 -122 -113 -132 -27 -22 -210 -243 -273 -330 -14 -19 -40 -45 -57 -57 -18
-12 -45 -42 -60 -66 -16 -24 -36 -44 -45 -44 -17 0 -42 61 -53 135 -8 49 -42
182 -55 213 -9 22 -13 22 -178 22 -118 0 -183 4 -218 15 -27 7 -60 13 -74 11
-89 -11 -116 -20 -136 -44 -43 -52 -75 -5 -67 99 6 71 -10 119 -47 139 -27 14
-53 68 -44 88 4 10 7 20 6 23 -1 4 8 5 19 2 16 -5 20 -2 18 12 -3 11 -22 23
-53 33 -37 12 -51 22 -58 44 -11 30 -35 37 -44 13 -4 -8 -19 -15 -35 -15 -56
0 -66 85 -11 96 21 4 32 16 45 49 16 37 25 46 64 59 65 22 83 21 80 -6 -2 -19
3 -23 28 -26 42 -3 105 -21 105 -30 1 -20 22 -32 90 -50 115 -29 183 -33 258
-13 39 11 40 12 29 41 -13 34 -23 37 -56 14 -19 -14 -25 -14 -32 -3 -5 8 -9
21 -9 30 0 9 -9 24 -20 34 -28 26 -26 32 25 54 49 22 52 28 30 74 -20 43 -165
137 -211 137 -34 0 -64 -21 -64 -46 0 -9 -11 -14 -34 -14 -48 0 -66 -9 -66
-32 0 -14 -6 -19 -22 -16 -19 2 -24 10 -26 45 -2 24 -9 44 -18 47 -7 3 -14 1
-14 -5 0 -7 -15 -9 -39 -5 -38 5 -42 3 -80 -42 -21 -26 -51 -54 -64 -61 -14
-8 -28 -24 -31 -37 -15 -58 -56 -9 -56 66 0 37 -2 39 -35 46 -20 3 -35 9 -33
13 2 3 18 34 35 68 23 43 29 63 20 66 -9 4 -9 7 1 18 21 23 13 27 -29 18 -45
-10 -42 -12 -91 58 -26 37 -43 40 -76 17 -16 -11 -22 -12 -22 -2 0 6 -19 -6
-42 -29 -45 -42 -77 -63 -100 -63 -17 0 -40 63 -42 115 l-1 40 -65 6 c-36 3
-66 5 -68 4 -1 -1 2 -14 7 -28 12 -32 1 -42 -58 -56 l-43 -9 7 26 c4 15 11 43
15 63 l7 37 -45 6 c-25 3 -61 6 -81 6 -36 0 -36 1 -36 41 0 34 -5 46 -28 62
-24 19 -32 20 -69 10 -32 -9 -46 -9 -57 0 -8 7 -41 12 -75 12 l-60 0 -11 39
c-6 22 -16 41 -22 43 -7 3 -22 -43 -38 -111 -15 -64 -31 -116 -35 -116 -16 0
-16 64 1 161 21 118 15 146 -31 155 -16 4 -50 24 -75 46 -39 34 -45 45 -45 78
0 22 10 56 25 81 35 61 33 69 -18 69 -35 0 -49 6 -72 30 l-29 30 33 0 33 0
-27 37 c-17 22 -28 48 -28 67 0 35 -11 46 -45 46 -19 0 -22 4 -17 21 5 14 0
28 -15 44 -34 36 -28 133 6 104 19 -15 28 -6 19 20 -3 12 -11 18 -17 15 -7 -4
-8 -2 -4 4 4 6 1 20 -6 31 -10 16 -15 18 -27 8 -12 -10 -12 -9 -1 9 11 18 11
28 -3 62 -16 40 -16 42 6 63 42 40 52 41 112 9 31 -17 63 -30 71 -30 7 0 17
-15 22 -32 8 -30 11 -33 45 -30 20 2 46 1 57 -3 20 -6 20 -8 6 -31 -25 -37
-20 -44 32 -41 l47 2 -3 -41 c-3 -52 15 -71 50 -53 38 19 58 41 58 62 0 18 -1
19 -26 2 -37 -24 -39 -14 -5 20 28 26 29 29 14 51 l-15 24 53 0 c30 0 59 4 65
8 12 8 15 44 3 36 -19 -11 -27 32 -13 63 15 30 18 31 77 29 54 -1 63 -4 72
-23 11 -25 22 -28 45 -13 12 8 11 16 -10 57 -14 26 -26 51 -28 56 -2 4 13 7
33 7 32 0 36 2 25 15 -6 8 -8 20 -4 26 4 8 3 9 -4 5 -16 -10 -15 23 3 54 12
23 19 25 82 25 l68 0 -3 63 c-2 35 -7 74 -13 88 -25 69 31 38 63 -33z m-3005
35 c-3 -8 -6 -5 -6 6 -1 11 2 17 5 13 3 -3 4 -12 1 -19z m5310 -20 c25 -23 30
-48 11 -48 -26 0 -87 21 -94 32 -8 13 22 38 45 38 8 0 25 -10 38 -22z m-6171
-84 c-9 -35 -63 -35 -72 0 -7 30 1 45 30 55 27 11 51 -20 42 -55z m5443 47
c10 -7 11 -13 2 -30 -15 -27 -37 -27 -44 1 -8 30 15 46 42 29z m-6786 -59 c50
-53 22 -102 -58 -102 -50 0 -65 14 -65 57 0 27 6 37 33 53 43 27 58 25 90 -8z
m2981 -61 c15 -16 15 -22 4 -40 -28 -45 -72 -14 -50 35 14 29 23 30 46 5z
m-209 -35 c24 -18 13 -46 -19 -46 -30 0 -51 31 -34 48 16 16 30 15 53 -2z
m1285 -91 c0 -33 -4 -45 -15 -45 -18 0 -20 41 -5 71 16 29 20 23 20 -26z
m-1248 -62 c14 -17 1 -33 -28 -33 -25 0 -27 6 -26 69 0 22 7 40 19 48 17 13
18 11 21 -29 2 -23 8 -48 14 -55z m691 23 c-4 -6 1 -5 10 3 20 16 23 2 5 -19
-7 -8 -3 -6 9 3 17 15 23 16 29 5 13 -21 13 -40 1 -35 -7 3 -11 10 -9 16 1 8
-4 7 -18 -1 -17 -11 -22 -10 -30 2 -5 8 -10 11 -10 6 0 -5 -6 -3 -13 3 -8 6
-18 7 -22 3 -5 -4 -4 -1 0 7 6 11 4 13 -8 8 -9 -3 -19 -2 -22 3 -3 5 14 9 39
8 31 0 43 -4 39 -12z m-3535 -42 c32 -22 30 -72 -3 -80 -48 -12 -102 48 -75
81 16 19 50 19 78 -1z m3732 -14 c-10 -6 -8 -9 4 -11 15 -4 16 -6 1 -24 -14
-19 -15 -19 -8 -1 4 13 3 17 -4 13 -7 -4 -10 0 -8 10 2 10 4 22 4 26 1 5 6 5
12 1 8 -5 7 -9 -1 -14z m254 -34 c54 -51 47 -113 -8 -71 -25 19 -36 19 -36 0
0 -23 -47 -18 -72 8 l-23 22 35 5 c29 4 37 10 45 38 5 17 12 32 16 32 4 0 24
-15 43 -34z m-1516 -8 c7 -7 12 -25 12 -40 0 -25 -4 -28 -33 -28 -18 0 -42 6
-53 14 -19 14 -19 15 5 40 27 28 50 33 69 14z m4508 -42 c8 -33 -11 -67 -34
-59 -23 9 -32 23 -32 56 0 23 4 27 30 27 23 0 31 -5 36 -24z m-5016 -143 c7
-65 19 -134 27 -153 34 -81 34 -83 18 -76 -12 4 -15 -3 -15 -37 0 -96 90 -197
176 -197 42 0 44 1 44 30 0 45 -21 87 -79 160 -29 35 -48 66 -42 68 6 2 39 -9
74 -25 57 -27 62 -32 63 -62 1 -18 11 -45 23 -61 13 -19 21 -44 21 -70 0 -37
2 -40 28 -40 15 0 34 -5 42 -10 11 -7 1 -15 -45 -35 -71 -32 -95 -35 -146 -22
-48 12 -91 3 -83 -18 4 -8 17 -15 29 -15 13 0 79 -26 147 -58 154 -73 156 -74
313 -118 104 -29 137 -42 163 -67 46 -43 54 -61 43 -90 -8 -22 -5 -29 28 -55
21 -17 64 -62 97 -102 32 -39 101 -115 152 -168 51 -53 121 -133 155 -176 34
-44 83 -104 110 -133 28 -32 47 -63 47 -77 0 -14 10 -30 24 -39 26 -17 36 -13
36 15 0 10 5 18 10 18 6 0 10 -16 10 -36 0 -29 3 -34 18 -30 9 3 31 8 47 12
47 11 101 41 229 128 218 149 291 196 304 196 26 0 57 -21 236 -163 63 -49
122 -79 148 -75 14 2 25 15 32 36 15 43 37 25 29 -24 -5 -32 -4 -34 23 -34 34
0 104 -44 104 -65 0 -10 -9 -12 -32 -9 -27 5 -38 1 -57 -20 -14 -14 -29 -26
-35 -26 -6 0 -38 26 -71 58 -34 31 -79 66 -100 77 -22 11 -87 62 -144 114 -95
86 -106 93 -134 87 -18 -4 -51 -25 -74 -48 -23 -22 -57 -50 -77 -62 -19 -11
-81 -53 -138 -91 -57 -39 -119 -78 -139 -89 -26 -13 -39 -27 -43 -47 -4 -23
-15 -34 -51 -49 -44 -19 -45 -20 -45 -67 -1 -44 -2 -47 -15 -29 -8 11 -15 27
-15 36 0 9 -17 31 -38 48 -22 17 -67 71 -102 120 -72 101 -91 118 -120 102
-18 -10 -20 -7 -20 25 0 35 -40 127 -60 140 -5 3 -29 37 -54 74 -24 37 -51 77
-59 87 -8 10 -63 77 -122 148 -59 71 -116 149 -128 173 -12 24 -28 43 -36 43
-8 0 -25 10 -38 22 -14 13 -63 37 -111 54 -48 17 -125 45 -172 62 -47 17 -102
34 -122 37 -23 3 -38 11 -38 20 0 17 -47 51 -83 60 -29 8 -32 2 -28 -62 2 -19
-9 -56 -24 -87 -15 -30 -29 -73 -32 -95 l-5 -39 63 5 63 6 -23 -31 c-23 -33
-65 -44 -74 -19 -3 6 -6 2 -6 -10 -1 -13 -5 -23 -10 -23 -5 0 -11 -10 -14 -22
-3 -22 -4 -22 -15 5 -7 16 -12 47 -12 71 0 25 -10 63 -26 93 -22 45 -35 57
-98 92 -84 46 -89 51 -126 130 -31 65 -38 72 -94 86 -22 6 -41 16 -43 22 -7
20 72 52 172 70 l96 17 -1 249 c-1 257 2 277 40 277 15 0 19 -17 30 -117z
m-1365 -27 c8 -24 6 -31 -14 -47 -13 -10 -29 -19 -36 -19 -21 0 -45 29 -45 54
0 31 20 47 55 44 22 -2 32 -10 40 -32z m5469 -118 c26 -36 21 -58 -13 -58 -30
0 -41 14 -41 56 0 31 33 33 54 2z m-1871 -256 c41 -36 -4 -86 -61 -66 -29 11
-31 25 -10 76 9 24 13 26 32 16 11 -6 29 -17 39 -26z m1848 17 c38 -27 37 -42
-2 -34 -34 8 -49 -4 -49 -41 0 -11 -9 -30 -20 -42 -17 -18 -25 -20 -48 -12
-78 29 -96 56 -39 62 33 3 34 5 24 49 -6 23 -4 25 21 22 15 -3 38 0 52 6 14 5
27 10 28 10 2 1 17 -8 33 -20z m463 -68 c10 -11 15 -25 11 -30 -10 -17 -75
-13 -81 4 -17 43 37 62 70 26z m1605 -42 c41 -14 44 -55 5 -65 -56 -14 -103
26 -74 61 15 18 27 19 69 4z m-3909 -84 c10 -12 10 -18 0 -30 -16 -19 -35 -19
-55 1 -12 12 -13 19 -4 30 15 18 43 18 59 -1z m2240 -140 c0 -50 -17 -59 -52
-28 -33 30 -16 73 29 73 21 0 23 -5 23 -45z m1569 -41 c16 -21 18 -30 10 -40
-16 -20 -46 -17 -69 6 -16 16 -18 25 -10 40 15 28 45 25 69 -6z m-4226 -113
c15 -59 -29 -145 -60 -119 -16 13 -17 64 -1 109 20 59 47 63 61 10z m3422
-161 c-3 -5 1 -10 10 -10 10 0 13 5 9 12 -4 7 -3 8 5 4 6 -4 9 -12 6 -17 -4
-5 1 -9 9 -9 9 0 16 -5 16 -12 0 -6 6 -3 14 8 14 18 14 18 13 0 -1 -10 4 -21
12 -24 9 -3 11 0 6 8 -5 9 -4 11 4 6 9 -6 9 -11 0 -23 -11 -12 -14 -12 -22 2
-7 13 -12 14 -23 4 -7 -6 -11 -15 -8 -20 3 -5 3 -9 0 -9 -3 0 -10 9 -16 20 -9
16 -8 18 5 14 32 -13 13 8 -20 22 -20 8 -33 19 -30 24 3 6 8 10 11 10 3 0 2
-4 -1 -10z m122 -22 c-3 -8 -6 -5 -6 6 -1 11 2 17 5 13 3 -3 4 -12 1 -19z m7
-41 c-3 -8 3 -20 12 -28 15 -12 16 -11 10 11 -6 21 -5 22 4 7 6 -9 16 -14 22
-11 7 4 8 2 4 -4 -4 -7 -2 -12 3 -12 6 0 11 -5 11 -12 0 -9 -3 -9 -12 0 -20
20 -33 14 -14 -7 15 -16 15 -19 2 -24 -9 -4 -18 -1 -22 5 -5 7 -2 8 6 3 8 -5
11 -3 8 6 -3 8 -11 13 -17 12 -6 -2 -11 4 -11 13 0 9 -5 12 -12 8 -7 -4 -8 -3
-4 4 4 7 2 12 -5 12 -8 0 -8 4 1 15 15 19 21 19 14 2z m-65 -17 c5 14 10 18
10 10 0 -8 -6 -24 -14 -34 -8 -11 -15 -14 -15 -7 0 7 -5 9 -12 5 -6 -4 -8 -3
-4 4 3 6 2 13 -4 17 -5 3 -10 11 -10 17 0 5 9 0 19 -13 l20 -24 10 25z m-39
-32 c22 -24 40 -37 40 -30 0 8 5 10 13 6 9 -6 9 -4 -1 8 -10 13 -10 18 -1 24
8 4 9 3 5 -4 -5 -8 0 -11 15 -9 17 3 33 -8 61 -40 49 -56 49 -68 1 -58 -80 15
-172 -8 -159 -40 2 -7 0 -18 -5 -26 -8 -12 -10 -12 -19 1 -7 12 -12 12 -22 2
-16 -16 -53 -15 -67 2 -15 18 -4 142 15 173 12 19 18 21 39 13 14 -5 25 -6 25
-2 0 4 5 0 11 -8 9 -12 10 -11 6 8 -7 31 -2 28 43 -20z m-5319 12 l24 -20 -24
-20 c-35 -30 -61 -26 -61 8 0 26 15 52 31 52 4 0 17 -9 30 -20z m3073 -37 c-8
-48 -22 -65 -48 -61 -17 2 -21 9 -19 38 1 36 24 60 55 60 16 0 18 -5 12 -37z
m2430 -2 c3 -5 -1 -14 -8 -20 -10 -9 -16 -9 -21 -1 -4 6 -1 9 7 8 7 -2 12 3
11 10 -3 14 3 16 11 3z m33 -31 c1 -11 -2 -20 -7 -20 -6 0 -7 17 -1 38 3 8 7
-1 8 -18z m-30 -15 c0 -8 -4 -12 -9 -9 -5 3 -6 10 -3 15 9 13 12 11 12 -6z
m-6269 -133 c4 -30 -26 -42 -44 -17 -10 14 -11 22 -2 32 16 20 42 12 46 -15z
m5185 -14 c9 -7 20 -28 23 -47 l7 -34 -64 7 c-77 9 -82 12 -73 39 11 36 25 47
58 47 18 0 40 -6 49 -12z m125 -20 c14 -14 16 -64 2 -73 -17 -11 -77 -11 -78
-1 -8 53 -6 61 18 73 31 16 43 16 58 1z m-4426 -60 c15 -13 149 -190 180 -238
8 -14 30 -61 48 -104 24 -57 39 -81 59 -89 14 -7 34 -20 43 -30 14 -13 27 -16
58 -11 46 8 50 -2 25 -62 -14 -33 -13 -37 15 -85 17 -27 38 -62 49 -77 10 -15
77 -115 148 -222 150 -228 223 -363 223 -413 0 -19 11 -60 25 -90 15 -31 29
-88 34 -129 5 -40 19 -110 32 -155 20 -70 26 -82 42 -77 18 6 47 -11 47 -27 0
-5 -9 -9 -20 -9 -13 0 -22 -9 -26 -25 -7 -30 -22 -31 -66 -6 -18 11 -69 34
-113 51 -44 17 -93 37 -110 45 -16 7 -59 21 -95 30 -36 9 -68 19 -71 21 -4 2
0 23 8 46 9 26 14 74 13 123 -1 44 4 116 12 160 12 68 18 82 40 94 24 14 29
13 82 -24 31 -21 58 -36 61 -33 9 9 -42 136 -87 218 -23 41 -54 102 -70 134
-51 103 -134 220 -222 311 -87 90 -130 160 -191 304 -14 35 -45 93 -67 130
-86 139 -108 177 -123 214 -16 38 -10 46 17 25z m3014 -297 c-2 -60 -7 -114
-10 -120 -4 -6 -19 -11 -33 -11 -24 0 -25 1 -18 53 6 47 29 152 40 185 3 7 9
10 15 7 6 -4 8 -49 6 -114z m-102 -99 c-3 -70 -7 -158 -8 -195 -1 -55 -5 -71
-20 -83 -11 -8 -26 -14 -33 -14 -13 0 -26 -42 -38 -119 -4 -24 -14 -59 -21
-77 -9 -22 -14 -74 -14 -153 0 -138 -8 -171 -44 -171 -23 0 -25 6 -45 113 -25
134 -28 212 -7 204 19 -8 25 11 31 96 3 40 22 142 42 227 44 192 41 182 52
175 6 -3 8 -55 5 -128 -5 -127 7 -137 20 -18 4 36 18 97 31 135 13 39 27 88
30 108 4 21 11 35 16 32 6 -3 7 -59 3 -132z m1086 -92 c28 -28 25 -62 -8 -93
-34 -33 -46 -34 -66 -5 -18 26 -21 71 -6 99 14 25 54 25 80 -1z m-1317 -118
c-2 -7 2 -12 7 -12 6 0 9 -12 7 -27 -2 -16 -10 -28 -18 -28 -18 0 -41 48 -33
69 7 19 40 17 37 -2z m647 -11 c16 -32 12 -41 -20 -41 -16 0 -30 5 -30 11 0
16 20 49 30 49 5 0 14 -9 20 -19z m-3126 -68 c-22 -16 -34 -13 -48 11 -9 13
-7 20 9 32 18 14 22 13 38 -8 18 -21 18 -23 1 -35z m4009 -50 c26 10 28 -31 2
-61 -20 -23 -25 -25 -49 -14 -35 16 -37 68 -3 81 13 5 25 5 28 -2 4 -5 14 -7
22 -4z m463 -34 c4 -6 10 -26 14 -45 6 -27 4 -36 -15 -54 -21 -20 -27 -21 -58
-11 -21 7 -37 20 -40 33 -7 26 17 75 40 81 33 9 52 7 59 -4z m-3846 -59 c0
-36 -3 -40 -24 -40 -14 0 -32 7 -40 16 -9 8 -16 26 -16 40 0 21 4 24 40 24
l40 0 0 -40z m2790 -10 c0 -34 -6 -36 -38 -14 -32 22 -28 44 8 44 27 0 30 -3
30 -30z m-3711 -295 c7 -7 11 -21 8 -29 -8 -19 -55 -39 -74 -32 -14 6 -18 67
-6 80 10 10 55 -2 72 -19z m2705 -41 c-1 -16 -5 -60 -9 -99 -6 -61 -4 -80 19
-149 32 -93 32 -149 0 -154 -30 -4 -49 24 -72 106 -20 69 -20 78 -6 170 8 53
17 106 20 117 16 51 50 58 48 9z m-119 -471 c29 -59 45 -77 45 -50 0 6 10 32
22 57 l21 45 9 -45 c11 -59 2 -129 -24 -170 l-20 -33 -19 31 c-27 41 -89 192
-89 215 0 35 25 11 55 -50z m-3979 -2 c13 -18 11 -26 -13 -75 -31 -65 -52 -71
-95 -29 -48 46 -34 103 37 141 22 11 46 -1 71 -37z m1222 -19 c4 -37 -13 -48
-54 -38 -20 5 -24 11 -18 29 10 34 25 48 48 45 16 -2 22 -11 24 -36z m2691
-87 c1 -82 4 -96 36 -160 19 -38 55 -123 81 -189 25 -65 104 -233 175 -372 71
-139 129 -260 129 -268 0 -22 -38 -30 -64 -12 -13 8 -45 41 -72 73 -61 73
-156 173 -166 173 -4 0 -10 -20 -14 -45 -7 -51 -13 -54 -40 -24 l-19 21 -17
-22 c-10 -12 -18 -28 -18 -36 0 -15 -18 -18 -36 -6 -28 18 -32 51 -27 183 6
127 6 244 2 335 -1 23 3 68 10 101 11 51 11 64 -3 97 -24 57 -21 179 5 236 19
39 22 43 29 25 5 -11 9 -60 9 -110z m-938 65 c30 -17 25 -63 -12 -94 -37 -31
-60 -33 -84 -6 -26 29 -10 70 35 92 41 21 37 21 61 8z m-3319 -91 c19 -37 13
-45 -27 -35 -28 7 -42 41 -24 62 17 21 31 13 51 -27z m609 -9 c41 -23 2 -100
-52 -100 -28 0 -29 2 -29 48 0 27 3 52 7 55 10 10 52 8 74 -3z m406 -206 c24
-60 70 -163 102 -229 44 -92 56 -126 51 -146 -5 -18 3 -51 30 -116 39 -97 61
-134 151 -260 31 -43 62 -89 69 -103 21 -41 -53 33 -109 110 -95 128 -140 226
-261 560 -43 118 -85 231 -94 251 -15 36 -12 53 8 46 5 -2 29 -52 53 -113z
m811 104 c17 -17 15 -53 -3 -68 -8 -7 -25 -10 -40 -6 -32 8 -34 49 -3 70 27
19 31 19 46 4z m5461 -120 c11 -73 23 -150 26 -170 2 -21 9 -56 16 -78 11 -36
10 -44 -8 -68 -11 -15 -38 -40 -61 -57 -22 -16 -74 -57 -114 -91 -87 -72 -107
-84 -147 -84 -16 0 -32 -4 -35 -9 -7 -11 23 -91 45 -116 9 -11 22 -36 28 -56
6 -20 32 -63 58 -95 25 -33 64 -86 86 -119 40 -58 41 -62 39 -133 -1 -41 -7
-83 -13 -93 -5 -11 -25 -79 -44 -151 -30 -116 -39 -136 -71 -169 -29 -30 -35
-43 -30 -62 5 -21 -11 -48 -86 -154 -51 -70 -112 -166 -136 -213 -28 -53 -50
-84 -58 -82 -8 2 -19 -10 -26 -25 -6 -15 -28 -66 -49 -113 -21 -47 -45 -112
-54 -145 -17 -69 -82 -208 -113 -245 -33 -39 -26 -12 28 115 27 64 60 149 72
188 42 140 120 287 299 565 55 84 99 156 99 160 0 4 18 34 40 67 25 36 53 99
71 158 17 54 37 111 45 125 32 62 15 102 -108 254 -88 109 -148 209 -148 249
0 12 -14 65 -32 118 -32 95 -32 98 -29 269 1 94 -2 172 -7 172 -16 0 -61 -57
-145 -185 -47 -71 -105 -154 -129 -183 -86 -102 -178 -307 -178 -395 0 -36 -4
-49 -20 -57 -11 -6 -20 -20 -20 -30 0 -13 7 -20 20 -20 21 0 25 -16 21 -93 -3
-46 -38 -188 -50 -200 -4 -4 -11 86 -15 202 -7 179 -5 214 7 238 9 15 25 61
37 102 32 109 108 255 228 436 126 190 252 324 345 368 61 29 97 27 57 -3 -17
-13 -21 -22 -15 -41 8 -23 8 -23 44 17 49 56 65 63 142 64 l66 0 22 -132z
m1089 90 c3 -23 -1 -28 -17 -28 -22 0 -46 34 -36 51 4 5 17 9 28 7 16 -2 23
-11 25 -30z m-6101 -120 c0 -156 12 -202 98 -364 61 -114 78 -154 66 -154 -13
0 -147 209 -184 287 -40 85 -50 207 -22 276 9 23 21 52 26 65 5 12 10 22 12
22 3 0 4 -60 4 -132z m6413 117 c9 -11 10 -25 4 -48 -8 -26 -15 -33 -41 -35
-53 -5 -83 47 -47 82 20 20 68 21 84 1z m-7131 -56 c14 -13 20 -28 16 -40 -3
-10 -7 -28 -10 -38 -4 -13 6 -36 30 -66 19 -26 46 -66 59 -88 13 -23 60 -106
106 -185 55 -94 95 -179 119 -250 23 -66 54 -132 81 -172 24 -36 63 -110 86
-165 50 -122 82 -185 92 -185 5 0 16 -16 25 -35 20 -42 29 -43 133 -14 41 11
101 21 132 21 70 0 103 17 132 63 24 40 29 41 70 20 35 -18 33 -13 19 -71 -11
-43 -9 -50 49 -197 66 -164 76 -202 52 -202 -23 0 -56 71 -90 193 -34 126 -54
172 -74 172 -7 0 -42 -9 -76 -20 -34 -11 -77 -20 -94 -20 -17 0 -88 -10 -158
-22 l-128 -22 -24 23 c-20 19 -23 30 -19 57 4 21 2 34 -5 34 -17 0 -59 78 -93
171 -16 46 -45 109 -63 139 -18 30 -45 78 -60 105 -17 32 -39 57 -63 70 -56
31 -63 49 -31 82 l26 28 -71 128 c-129 229 -167 287 -227 350 -48 49 -60 68
-60 94 0 58 74 84 119 42z m1574 -120 c22 -27 22 -29 -6 -70 -41 -59 -107 -36
-107 37 0 58 8 67 54 60 23 -4 49 -15 59 -27z m-4083 -66 c0 -5 -5 -25 -11
-46 -9 -35 -13 -38 -42 -35 -61 6 -44 88 18 88 19 0 35 -3 35 -7z m1612 -50
c22 -20 23 -36 3 -53 -29 -24 -85 36 -58 63 11 12 36 8 55 -10z m149 -4 c30
-30 22 -64 -15 -64 -23 0 -31 6 -39 28 -18 54 14 76 54 36z m-2471 -395 c0
-12 15 -37 33 -55 19 -19 48 -52 65 -75 17 -22 51 -51 76 -64 24 -13 52 -38
61 -54 39 -69 52 -76 132 -76 40 0 73 -2 73 -4 0 -1 -5 -17 -11 -34 -9 -28
-14 -31 -49 -29 -68 2 -98 -46 -109 -173 -5 -49 -10 -65 -21 -65 -12 0 -15 18
-15 98 0 76 -3 100 -15 107 -59 37 -144 -47 -110 -109 6 -12 7 -21 2 -21 -5 0
-9 -21 -9 -47 0 -27 -2 -79 -6 -118 -3 -38 -6 -89 -6 -112 -1 -30 -5 -43 -15
-43 -15 0 -26 30 -26 76 0 17 -3 45 -6 62 l-6 30 -35 -14 c-31 -13 -38 -13
-59 0 -75 50 -134 127 -134 176 0 31 13 24 48 -25 17 -25 46 -54 64 -65 35
-21 118 -28 118 -9 0 5 -18 48 -40 94 -49 103 -85 135 -154 135 -32 0 -56 7
-76 21 -21 16 -37 20 -59 16 -26 -6 -31 -3 -31 13 0 23 4 23 116 20 75 -2 82
0 87 19 3 12 13 21 25 21 23 0 46 25 59 66 6 17 9 89 6 170 -4 127 -3 137 11
114 8 -14 15 -35 16 -46z m9873 -45 c38 -10 38 -11 35 -57 -3 -40 -6 -47 -25
-50 -12 -2 -35 4 -52 13 -39 19 -50 58 -26 85 21 23 19 23 68 9z m-4587 -144
c12 -19 15 -37 11 -70 -6 -42 -5 -45 16 -45 50 0 187 -110 211 -169 17 -44 32
-141 22 -141 -26 0 -53 32 -85 103 -30 64 -49 91 -90 125 -59 50 -87 51 -77 2
3 -17 9 -66 12 -110 l7 -79 56 -49 c31 -27 75 -61 99 -77 24 -16 42 -35 42
-46 0 -16 -7 -18 -53 -16 -46 2 -57 -2 -92 -30 -22 -18 -50 -41 -62 -50 -24
-19 -36 -83 -46 -246 -5 -74 -17 -107 -39 -107 -7 0 -8 24 -3 65 3 35 4 73 0
84 -3 11 -34 40 -68 64 -37 27 -71 61 -86 87 -22 40 -22 42 -3 31 11 -6 33
-29 49 -51 24 -34 33 -40 66 -40 35 0 38 2 31 23 -22 70 -123 175 -195 202
-31 12 -54 27 -54 35 0 22 51 42 120 48 l62 5 30 71 c29 70 30 73 12 94 -9 12
-19 27 -21 34 -3 7 -26 -6 -57 -30 -47 -37 -81 -53 -81 -37 0 3 16 36 35 74
33 67 74 111 101 111 54 0 91 58 78 124 -5 32 -4 36 15 36 11 0 28 -11 37 -25z
m-3084 -2 c5 -21 -11 -63 -24 -63 -5 0 -13 11 -20 25 -8 19 -8 28 2 40 17 20
38 19 42 -2z m4307 -87 c53 -62 63 -86 34 -86 -21 1 -143 141 -143 165 0 15 3
15 29 -2 15 -10 51 -45 80 -77z m-5020 64 c12 -6 8 -14 -16 -39 -26 -25 -36
-29 -55 -22 -26 9 -35 45 -17 67 12 15 55 12 88 -6z m-121 -64 c4 -47 -8 -62
-37 -47 -52 28 -46 95 7 89 23 -3 27 -8 30 -42z m1779 -28 c13 -12 23 -28 23
-37 0 -10 -9 -6 -30 14 -29 28 -38 45 -23 45 4 0 17 -10 30 -22z m7338 -23
c34 -33 33 -63 -2 -71 -43 -11 -77 14 -81 59 -3 35 -2 37 28 37 19 0 40 -9 55
-25z m-3782 -242 c39 -51 67 -154 64 -233 -3 -61 -6 -69 -54 -131 -27 -36 -80
-115 -116 -175 -72 -120 -164 -214 -314 -324 -18 -13 -30 -26 -28 -29 2 -4 -5
-7 -16 -7 -10 0 -19 3 -19 7 0 17 65 92 126 145 135 118 187 170 212 214 14
25 38 63 52 85 53 79 121 217 122 248 1 59 -22 116 -88 213 -39 57 -63 101
-60 111 6 14 35 -16 119 -124z m-457 -297 c19 -15 19 -15 -1 -53 -21 -40 -40
-49 -81 -39 -21 6 -24 12 -24 50 0 23 3 46 7 49 12 12 79 7 99 -7z m-6222 -61
c8 -23 -4 -45 -25 -45 -11 0 -22 7 -25 15 -9 23 3 45 25 45 10 0 21 -7 25 -15z
m3827 -82 c115 -137 231 -301 222 -316 -8 -13 -31 12 -77 82 -43 68 -173 227
-220 270 -30 29 -33 41 -8 41 9 0 47 -35 83 -77z m-1914 -59 c12 -2 28 -10 35
-17 25 -24 79 -59 96 -62 9 -1 28 7 42 19 l25 21 -19 -23 c-11 -12 -16 -25
-12 -29 4 -5 12 0 17 9 5 9 16 23 24 31 8 8 12 17 9 19 -2 3 16 3 41 1 30 -3
45 -1 45 7 0 6 5 8 12 4 8 -5 9 -2 5 9 -3 9 -1 19 5 23 6 4 8 3 5 -2 -3 -6 -2
-16 4 -24 5 -9 9 -10 9 -3 0 7 9 9 23 5 20 -5 21 -4 7 14 -14 19 -14 19 7 0
12 -10 21 -28 20 -40 0 -11 3 -47 7 -78 5 -35 4 -69 -2 -90 -6 -18 -13 -51
-15 -73 -3 -35 -6 -40 -28 -41 -32 -1 -95 34 -106 59 -6 12 -20 21 -40 22 -18
1 -49 16 -70 34 -42 34 -59 37 -87 16 -34 -26 -52 -17 -87 41 -46 78 -56 83
-106 50 -22 -15 -47 -24 -55 -21 -22 9 -11 42 15 49 12 3 40 23 62 44 40 38
47 40 112 26z m-2479 -41 c6 -60 -57 -94 -98 -53 -42 42 -7 93 60 88 31 -3 35
-6 38 -35z m3331 18 c12 -8 13 -16 2 -50 -13 -46 -17 -47 -67 -26 -30 12 -34
18 -29 37 13 42 59 61 94 39z m7389 -3 c29 -29 1 -98 -40 -98 -37 0 -58 19
-58 53 0 41 15 57 55 57 17 0 36 -5 43 -12z m-8136 -13 c2 3 5 -2 5 -10 0 -19
0 -19 -23 7 -12 14 -13 18 -3 10 9 -6 18 -10 21 -7z m-2848 -70 c15 -23 15
-26 -5 -46 -23 -23 -60 -20 -92 8 -19 17 -16 41 10 81 l14 23 28 -20 c16 -11
36 -32 45 -46z m10519 -33 c23 -20 22 -57 -3 -82 -24 -24 -57 -26 -82 -3 -22
20 -23 45 -3 84 13 25 20 28 43 23 15 -4 35 -14 45 -22z m-5279 -58 c36 -35 9
-92 -38 -80 -28 7 -41 36 -32 72 7 28 46 33 70 8z m3189 1 c11 -8 17 -23 15
-37 -2 -18 -9 -23 -33 -23 -27 0 -30 3 -33 38 -3 30 0 37 15 37 10 0 26 -7 36
-15z m-6003 -55 c0 -28 -3 -30 -35 -30 -45 0 -64 30 -40 66 15 23 17 24 45 9
23 -12 30 -22 30 -45z m5764 31 c14 -15 14 -20 3 -30 -19 -15 -47 -4 -47 18 0
35 19 40 44 12z m-7870 -47 c21 -20 20 -30 -5 -70 -37 -61 -105 -37 -97 34 5
44 71 67 102 36z m6663 -179 c0 -8 -4 -12 -9 -9 -5 3 -6 10 -3 15 9 13 12 11
12 -6z m-947 -51 c0 -8 -5 -24 -10 -35 -10 -18 -13 -18 -40 -4 -17 9 -30 18
-30 21 0 5 59 33 73 34 4 0 7 -7 7 -16z m-2999 -53 c33 -33 37 -66 12 -93 -19
-21 -42 -23 -77 -7 -40 19 -44 70 -8 112 21 24 39 21 73 -12z m6756 -137 c27
-7 35 -27 23 -59 -19 -49 -91 -41 -111 13 -16 42 25 63 88 46z m-2834 -355
c15 -24 1 -49 -28 -49 -31 0 -41 20 -25 50 13 24 38 23 53 -1z m2415 -41 c18
-18 15 -36 -8 -43 -29 -9 -60 4 -60 25 0 28 46 40 68 18z m-267 -51 c-6 -8 -7
-18 -3 -22 4 -5 1 -5 -6 -1 -10 6 -10 11 -1 22 6 8 14 14 16 14 3 0 0 -6 -6
-13z m-25 -29 c4 -6 3 -8 -4 -4 -6 3 -14 -3 -17 -15 -4 -11 -9 -18 -12 -16 -5
5 14 47 22 47 2 0 7 -5 11 -12z m-97 -25 c-3 -20 2 -27 11 -13 7 12 9 10 7 -7
-1 -21 -2 -22 -21 -5 -18 16 -19 16 -13 0 3 -10 3 -20 -2 -22 -11 -7 -10 27 2
42 11 14 18 16 16 5z m44 -8 c-3 -9 -8 -14 -10 -11 -3 3 -2 9 2 15 9 16 15 13
8 -4z"/>
<path d="M5936 11351 c-4 -5 -2 -12 3 -15 5 -4 12 -2 15 3 4 5 2 12 -3 15 -5
4 -12 2 -15 -3z"/>
<path d="M5948 11313 c6 -2 9 -10 6 -15 -4 -7 -2 -8 5 -4 13 9 5 26 -12 25 -9
0 -8 -2 1 -6z"/>
<path d="M6295 9122 c2 -12 7 -28 12 -35 11 -17 11 -29 0 -52 -5 -11 -6 -17
-2 -13 5 4 15 2 24 -5 14 -10 14 -10 4 3 -8 10 -9 21 -3 30 14 21 12 40 -2 38
-7 -2 -13 5 -13 14 0 10 -6 23 -12 29 -10 10 -12 8 -8 -9z"/>
<path d="M8140 9270 c6 -11 13 -20 16 -20 2 0 0 9 -6 20 -6 11 -13 20 -16 20
-2 0 0 -9 6 -20z"/>
<path d="M8210 9261 c0 -7 -5 -9 -12 -5 -7 5 -8 3 -3 -5 5 -9 10 -10 18 -2 6
6 8 14 4 18 -4 3 -7 1 -7 -6z"/>
<path d="M8103 9255 c4 -5 -10 -27 -30 -49 -21 -22 -31 -35 -22 -28 9 6 20 8
24 4 5 -4 5 -2 2 4 -7 13 16 37 26 29 4 -3 5 -2 2 2 -3 3 0 12 6 19 7 9 6 14
-3 20 -7 4 -10 3 -5 -1z"/>
<path d="M8173 9239 c1 -14 7 -26 14 -26 8 0 9 5 4 11 -4 6 -11 18 -14 26 -3
8 -5 3 -4 -11z"/>
<path d="M8063 9243 c4 -3 1 -13 -6 -22 -11 -14 -10 -14 5 -2 16 12 16 31 1
31 -4 0 -3 -3 0 -7z"/>
<path d="M8216 9232 c-3 -5 1 -9 9 -9 8 0 12 4 9 9 -3 4 -7 8 -9 8 -2 0 -6 -4
-9 -8z"/>
<path d="M8139 9194 c-15 -19 -21 -47 -8 -38 5 3 7 9 4 14 -7 11 20 32 30 22
5 -4 5 -1 1 6 -9 15 -11 15 -27 -4z"/>
<path d="M8153 9163 c0 -9 4 -10 14 -2 7 6 13 12 13 14 0 1 -6 2 -13 2 -8 0
-14 -6 -14 -14z"/>
<path d="M8176 9152 c-3 -5 1 -9 9 -9 8 0 12 4 9 9 -3 4 -7 8 -9 8 -2 0 -6 -4
-9 -8z"/>
<path d="M6780 9245 c-7 -8 -16 -13 -20 -10 -4 3 -13 -2 -19 -9 -8 -10 -9 -16
-1 -21 9 -6 13 0 12 15 0 3 9 7 21 7 20 2 20 1 4 -8 -9 -6 -15 -15 -11 -20 3
-5 2 -9 -3 -8 -18 3 -33 -1 -33 -10 0 -14 41 0 47 16 5 12 7 12 14 1 6 -9 8
-7 7 7 0 11 3 28 7 38 9 21 -8 23 -25 2z"/>
<path d="M9538 8489 c3 -27 11 -43 29 -54 29 -20 36 -15 35 22 -1 41 -5 64 -9
59 -3 -2 -17 -1 -31 4 -27 7 -27 6 -24 -31z"/>
<path d="M6526 7935 c-3 -9 -18 -15 -36 -15 -28 0 -30 -2 -24 -27 12 -51 49
-107 92 -140 51 -39 62 -41 62 -10 0 38 -29 159 -41 174 -22 26 -46 34 -53 18z"/>
<path d="M9355 6400 c-3 -6 1 -7 9 -4 18 7 21 14 7 14 -6 0 -13 -4 -16 -10z"/>
<path d="M9369 6388 c0 -2 -2 -11 -4 -21 -3 -15 -1 -16 11 -6 7 6 11 15 8 20
-5 9 -13 12 -15 7z"/>
<path d="M3327 4114 c-4 -4 1 -20 10 -35 14 -23 25 -29 50 -29 41 0 43 20 7
49 -26 21 -55 27 -67 15z"/>
<path d="M6041 15165 c-1 -26 32 -97 50 -111 8 -6 22 -14 32 -17 21 -8 17 0
-23 53 -15 19 -34 49 -43 65 -13 24 -16 26 -16 10z"/>
<path d="M5550 14746 l0 -66 35 0 c34 0 35 1 34 38 0 30 -7 43 -35 65 l-34 29
0 -66z"/>
</g>
</svg>
